<!-- icon666.com - MILLIONS vector ICONS FREE --><svg version="1.1" id="Capa_1" xmlns="http://www.w3.org/2000/svg" xmlns:xlink="http://www.w3.org/1999/xlink" x="0px" y="0px" viewBox="0 0 512 512" style="enable-background:new 0 0 512 512;" xml:space="preserve"><path style="fill:#FFDB0C;" d="M256,0L256,0c-79.502,0-143.951,64.449-143.951,143.951v73.761h64.439v-73.76 c0-43.913,35.598-79.511,79.511-79.511l0,0c43.913,0,79.511,35.598,79.511,79.511v73.76h64.439v-73.761 C399.951,64.449,335.502,0,256,0z"></path><path style="fill:#FBBF00;" d="M256,0L256,0c0,20.722,0,40.221,0,64.44l0,0c43.913,0,79.511,35.598,79.511,79.511v73.76h64.439 V143.95C399.951,64.449,335.502,0,256,0z"></path><rect x="47.05" y="202.71" style="fill:#FF8800;" width="417.9" height="309.29"></rect><rect x="256" y="202.71" style="fill:#E47700;" width="208.95" height="309.29"></rect><path style="fill:#984D00;" d="M295.273,328.819c0-21.69-17.583-39.273-39.273-39.273s-39.273,17.583-39.273,39.273 c0,13.865,7.191,26.042,18.04,33.031l-13.474,63.316h69.414l-13.474-63.316C288.082,354.861,295.273,342.684,295.273,328.819z"></path><path style="fill:#723802;" d="M295.273,328.819c0-21.69-17.583-39.273-39.273-39.273c0,17.661,0,135.619,0,135.619h34.707 l-13.474-63.316C288.082,354.861,295.273,342.684,295.273,328.819z"></path></svg>