<!-- icon666.com - MILLIONS vector ICONS FREE --><svg id="Layer_1" enable-background="new 0 0 124 124" viewBox="0 0 124 124" xmlns="http://www.w3.org/2000/svg"><path d="m0 0h124v27.101h-124z" fill="#30ade0"></path><path d="m0 27.101h124v96.899h-124z" fill="#e6e6e6"></path><g fill="#fff"><path d="m58.509 11.579h57.535v4h-57.535z"></path><circle cx="12.022" cy="13.55" r="4.066"></circle><circle cx="27.268" cy="13.55" r="4.066"></circle><circle cx="42.513" cy="13.55" r="4.066"></circle></g><path d="m16.566 42.187h62.83v17.371h-62.83z" fill="#cdcdcd"></path><path d="m79.396 42.187h28.576v17.371h-28.576z" fill="#997caa"></path><path d="m114.683 112.606c-2.167 2.195-5.469 2.759-8.229 1.408-1.406-.689-2.648-1.679-3.64-2.901l-15.727-19.098 7.24-7.331 18.881 15.905c1.207 1.004 2.185 2.261 2.865 3.685 1.335 2.794.778 6.138-1.39 8.332z" fill="#6a6967"></path><path d="m95.139 57.128c8.971 8.916 8.971 23.372 0 32.289s-23.515 8.916-32.486 0-8.971-23.372 0-32.289 23.515-8.917 32.486 0z" fill="#30ade0"></path><path d="m78.896 55.747c-9.659 0-17.517 7.862-17.517 17.525s7.858 17.525 17.517 17.525c9.658 0 17.517-7.862 17.517-17.525s-7.858-17.525-17.517-17.525zm12.706 10.514h-6.254c-.453-2.602-1.152-4.99-2.001-6.809 3.536 1.143 6.482 3.606 8.255 6.809zm1.811 7.011c0 1.725-.318 3.373-.872 4.91h-7.057c.245-1.611.384-3.134.419-4.394.047-1.486-.015-3.016-.158-4.527h7.092c.368 1.276.576 2.619.576 4.011zm-14.664 14.484c-.768-.216-2.144-2.81-3.042-6.574h6.138c-.942 3.695-2.287 6.339-3.096 6.574zm-3.602-9.574c-.223-1.606-.345-3.331-.298-5.121.021-1.313.133-2.585.303-3.8h7.581c.148 1.431.22 2.926.172 4.438-.043 1.543-.205 3.052-.44 4.482h-7.318zm-10.768-4.91c0-1.393.208-2.735.576-4.011h7.177c-.163 1.251-.262 2.51-.282 3.737-.044 1.698.06 3.459.281 5.184h-6.88c-.554-1.536-.872-3.184-.872-4.91zm14.808-14.51c.026.001.052.003.078.004.882.303 2.237 3.366 3.026 7.495h-6.578c1.016-4.27 2.66-7.263 3.474-7.499zm-4.123.515c-.99 1.852-1.835 4.317-2.411 6.984h-6.463c1.875-3.387 5.065-5.938 8.874-6.984zm-8.327 21.905h5.906c.486 2.273 1.168 4.349 1.975 5.97-3.273-1.012-6.047-3.157-7.881-5.97zm16.12 6.052c.877-1.71 1.563-3.862 2.06-6.052h6.139c-1.893 2.903-4.791 5.083-8.199 6.052z" fill="#fff"></path></svg>