<!-- icon666.com - MILLIONS vector ICONS FREE --><svg viewBox="0 -36 512 512" xmlns="http://www.w3.org/2000/svg"><path d="m159.621094 48.296875v392.621094h342.078125c5.6875 0 10.300781-4.613281 10.300781-10.300781v-382.320313zm0 0" fill="#acacac"></path><path d="m512 48.296875v382.320313c0 5.6875-4.613281 10.300781-10.300781 10.300781h-32.96875c5.6875 0 10.304687-4.613281 10.304687-10.300781v-382.320313zm0 0" fill="#9c9c9c"></path><path d="m179.402344 440.917969h-169.101563c-5.6875 0-10.300781-4.613281-10.300781-10.300781v-382.320313h179.402344zm0 0" fill="#5a5a5a"></path><path d="m146.441406 48.296875h32.964844v392.621094h-32.964844zm0 0" fill="#444"></path><path d="m10.300781 0h491.398438c5.6875 0 10.300781 4.613281 10.300781 10.300781v64.792969h-512v-64.792969c0-5.6875 4.613281-10.300781 10.300781-10.300781zm0 0" fill="#00d2f9"></path><path d="m51.761719 45.339844c-4.265625 0-7.726563-3.460938-7.726563-7.726563v-.132812c0-4.265625 3.460938-7.722657 7.726563-7.722657 4.269531 0 7.726562 3.457032 7.726562 7.722657v.132812c0 4.265625-3.457031 7.726563-7.726562 7.726563zm0 0" fill="#ff5a96"></path><path d="m82.84375 45.339844c-4.269531 0-7.726562-3.460938-7.726562-7.726563v-.132812c0-4.265625 3.457031-7.722657 7.726562-7.722657 4.265625 0 7.722656 3.457032 7.722656 7.722657v.132812c0 4.265625-3.457031 7.726563-7.722656 7.726563zm0 0" fill="#e7e7e7"></path><path d="m113.921875 45.339844c-4.269531 0-7.726563-3.460938-7.726563-7.726563v-.132812c0-4.265625 3.457032-7.722657 7.726563-7.722657 4.265625 0 7.726563 3.457032 7.726563 7.722657v.132812c0 4.265625-3.460938 7.726563-7.726563 7.726563zm0 0" fill="#ffd40d"></path><path d="m512 10.300781v64.789063h-32.964844v-64.789063c0-5.6875-4.617187-10.300781-10.304687-10.300781h32.96875c5.6875 0 10.300781 4.617188 10.300781 10.300781zm0 0" fill="#00abef"></path><path d="m90.828125 177.707031h-42.582031c-4.265625 0-7.726563-3.460937-7.726563-7.726562s3.460938-7.726563 7.726563-7.726563h42.582031c4.265625 0 7.726563 3.460938 7.726563 7.726563s-3.460938 7.726562-7.726563 7.726562zm0 0" fill="#00b7a0"></path><path d="m125.855469 208.269531h-77.609375c-4.265625 0-7.726563-3.460937-7.726563-7.726562s3.460938-7.726563 7.726563-7.726563h77.609375c4.265625 0 7.722656 3.460938 7.722656 7.726563s-3.457031 7.726562-7.722656 7.726562zm0 0" fill="#00b7a0"></path><path d="m125.855469 238.828125h-77.609375c-4.265625 0-7.726563-3.457031-7.726563-7.722656 0-4.269531 3.460938-7.726563 7.726563-7.726563h77.609375c4.265625 0 7.722656 3.457032 7.722656 7.726563 0 4.265625-3.457031 7.722656-7.722656 7.722656zm0 0" fill="#00b7a0"></path><path d="m48.238281 148.230469c-1.234375 0-2.484375-.296875-3.648437-.921875-3.761719-2.019532-5.167969-6.703125-3.148438-10.464844l7.554688-14.054688c2.019531-3.761718 6.703125-5.171874 10.460937-3.148437 3.761719 2.019531 5.171875 6.703125 3.148438 10.460937l-7.550781 14.058594c-1.398438 2.59375-4.0625 4.070313-6.816407 4.070313zm0 0" fill="#00abef"></path><path d="m90.828125 328.839844h-42.582031c-4.265625 0-7.726563-3.457032-7.726563-7.726563 0-4.265625 3.460938-7.726562 7.726563-7.726562h42.582031c4.265625 0 7.726563 3.460937 7.726563 7.726562 0 4.269531-3.460938 7.726563-7.726563 7.726563zm0 0" fill="#ffd40d"></path><path d="m125.855469 359.402344h-77.609375c-4.265625 0-7.726563-3.457032-7.726563-7.726563 0-4.265625 3.460938-7.726562 7.726563-7.726562h77.609375c4.265625 0 7.722656 3.460937 7.722656 7.726562 0 4.269531-3.457031 7.726563-7.722656 7.726563zm0 0" fill="#00b7a0"></path><path d="m125.855469 389.964844h-77.609375c-4.265625 0-7.726563-3.460938-7.726563-7.726563 0-4.269531 3.460938-7.726562 7.726563-7.726562h77.609375c4.265625 0 7.722656 3.460937 7.722656 7.726562s-3.457031 7.726563-7.722656 7.726563zm0 0" fill="#00b7a0"></path><path d="m48.238281 299.363281c-1.234375 0-2.484375-.296875-3.648437-.921875-3.761719-2.019531-5.167969-6.703125-3.148438-10.464844l7.554688-14.054687c2.019531-3.761719 6.703125-5.171875 10.460937-3.148437 3.761719 2.019531 5.171875 6.703124 3.148438 10.460937l-7.554688 14.058594c-1.394531 2.597656-4.058593 4.070312-6.8125 4.070312zm0 0" fill="#00abef"></path><path d="m226.816406 170.839844c-2.671875 0-5.265625-1.386719-6.699218-3.867188-2.878907-4.996094-4.464844-11.507812-4.464844-18.339844 0-6.832031 1.585937-13.347656 4.464844-18.34375 2.132812-3.695312 6.859374-4.964843 10.554687-2.832031 3.695313 2.132813 4.964844 6.855469 2.832031 10.550781-1.523437 2.648438-2.398437 6.519532-2.398437 10.625 0 4.101563.875 7.972657 2.398437 10.621094 2.132813 3.695313.863282 8.421875-2.832031 10.550782-1.214844.703124-2.542969 1.035156-3.855469 1.035156zm0 0" fill="#5a5a5a"></path><path d="m464.949219 170.839844c-1.3125 0-2.636719-.332032-3.855469-1.035156-3.695312-2.132813-4.964844-6.855469-2.832031-10.550782 1.527343-2.648437 2.398437-6.519531 2.398437-10.621094 0-4.105468-.875-7.976562-2.398437-10.625-2.132813-3.695312-.863281-8.421874 2.835937-10.550781 3.691406-2.132812 8.417969-.863281 10.550782 2.832031 2.878906 4.996094 4.464843 11.511719 4.464843 18.34375 0 6.832032-1.585937 13.34375-4.464843 18.339844-1.429688 2.480469-4.03125 3.867188-6.699219 3.867188zm0 0" fill="#5a5a5a"></path><path d="m366.144531 156.355469h-111.949219c-4.265624 0-7.722656-3.457031-7.722656-7.722657 0-4.269531 3.457032-7.726562 7.722656-7.726562h111.949219c4.265625 0 7.722657 3.457031 7.722657 7.726562 0 4.265626-3.457032 7.722657-7.722657 7.722657zm0 0" fill="#8feadb"></path><path d="m437.570312 156.355469h-37.089843c-4.265625 0-7.722657-3.457031-7.722657-7.722657 0-4.269531 3.457032-7.726562 7.722657-7.726562h37.089843c4.265626 0 7.726563 3.457031 7.726563 7.726562 0 4.265626-3.460937 7.722657-7.726563 7.722657zm0 0" fill="#8feadb"></path><g fill="#5a5a5a"><path d="m331.890625 208.269531h-105.078125c-4.269531 0-7.726562-3.460937-7.726562-7.726562s3.457031-7.726563 7.726562-7.726563h105.078125c4.265625 0 7.726563 3.460938 7.726563 7.726563s-3.460938 7.726562-7.726563 7.726562zm0 0"></path><path d="m464.953125 238.828125h-238.140625c-4.269531 0-7.726562-3.457031-7.726562-7.722656 0-4.269531 3.457031-7.726563 7.726562-7.726563h238.140625c4.269531 0 7.726563 3.457032 7.726563 7.726563 0 4.265625-3.457032 7.722656-7.726563 7.722656zm0 0"></path><path d="m464.953125 269.394531h-128.941406c-4.269531 0-7.726563-3.460937-7.726563-7.726562 0-4.269531 3.457032-7.726563 7.726563-7.726563h128.945312c4.265625 0 7.726563 3.457032 7.726563 7.726563 0 4.265625-3.460938 7.726562-7.730469 7.726562zm0 0"></path><path d="m297.550781 269.394531h-70.738281c-4.265625 0-7.726562-3.460937-7.726562-7.726562 0-4.269531 3.460937-7.726563 7.726562-7.726563h70.738281c4.265625 0 7.726563 3.457032 7.726563 7.726563 0 4.265625-3.460938 7.726562-7.726563 7.726562zm0 0"></path><path d="m464.953125 299.953125h-238.140625c-4.269531 0-7.726562-3.457031-7.726562-7.722656 0-4.269531 3.457031-7.726563 7.726562-7.726563h238.140625c4.269531 0 7.726563 3.457032 7.726563 7.726563 0 4.265625-3.457032 7.722656-7.726563 7.722656zm0 0"></path><path d="m464.953125 330.515625h-238.140625c-4.269531 0-7.726562-3.457031-7.726562-7.726563 0-4.265624 3.457031-7.726562 7.726562-7.726562h238.140625c4.269531 0 7.726563 3.460938 7.726563 7.726562 0 4.269532-3.457032 7.726563-7.726563 7.726563zm0 0"></path></g><path d="m226.804688 389.421875c-1.234376 0-2.488282-.296875-3.652344-.925781-3.757813-2.019532-5.167969-6.703125-3.144532-10.460938l7.554688-14.058594c2.019531-3.757812 6.703125-5.167968 10.460938-3.148437 3.757812 2.019531 5.167968 6.703125 3.148437 10.460937l-7.554687 14.058594c-1.394532 2.597656-4.058594 4.074219-6.8125 4.074219zm0 0" fill="#ffd40d"></path><path d="m253.761719 389.421875c-1.238281 0-2.488281-.296875-3.652344-.925781-3.757813-2.019532-5.167969-6.703125-3.148437-10.460938l7.554687-14.058594c2.019531-3.757812 6.703125-5.167968 10.464844-3.148437 3.757812 2.019531 5.167969 6.703125 3.148437 10.460937l-7.558594 14.058594c-1.390624 2.597656-4.058593 4.074219-6.808593 4.074219zm0 0" fill="#ffd40d"></path></svg>