<!-- icon666.com - MILLIONS vector ICONS FREE --><svg viewBox="0 0 48 48" xmlns="http://www.w3.org/2000/svg"><g id="web_search" data-name="web search"><circle cx="20" cy="20" fill="#008999" r="18"></circle><path d="m38 21c0-.33 0-.66 0-1s0-.67 0-1h-8a31.18 31.18 0 0 0 -.73-6h7.34a15 15 0 0 0 -1-2h-6.92c-1.69-5.24-4.69-8.77-8.34-9h-.7c-3.65.23-6.65 3.76-8.34 9h-6.88a15 15 0 0 0 -1 2h7.34a31.18 31.18 0 0 0 -.77 6h-8v1s0 .67 0 1h8a31.18 31.18 0 0 0 .73 6h-7.31a15 15 0 0 0 1 2h6.88c1.7 5.24 4.7 8.77 8.35 9h.7c3.62-.22 6.69-3.75 8.34-9h6.88a15 15 0 0 0 1-2h-7.33a31.18 31.18 0 0 0 .76-6zm-19 14.85c-2.28-.59-4.29-3.19-5.56-6.85h5.56zm0-8.85h-6.15a28.12 28.12 0 0 1 -.85-6h7zm0-8h-7a28.12 28.12 0 0 1 .82-6h6.18zm0-8h-5.56c1.27-3.66 3.28-6.26 5.56-6.85zm2-6.85c2.28.59 4.29 3.19 5.56 6.85h-5.56zm0 31.7v-6.85h5.56c-1.27 3.66-3.28 6.26-5.56 6.85zm6.15-8.85h-6.15v-6h7a28.12 28.12 0 0 1 -.85 6zm-6.15-8v-6h6.15a28.12 28.12 0 0 1 .85 6z" fill="#fff"></path><circle cx="32" cy="32" fill="#00d9f2" r="9"></circle><path d="m45.71 44.29-6-6a10 10 0 1 0 -1.41 1.41l6 6a1 1 0 0 0 1.41-1.41zm-21.71-12.29a8 8 0 1 1 8 8 8 8 0 0 1 -8-8z" fill="#ff6d00"></path><path d="m36.71 31.32a1 1 0 0 1 -.94-.67 4 4 0 0 0 -5.11-2.43 1 1 0 0 1 -.66-1.87 6 6 0 0 1 7.65 3.65 1 1 0 0 1 -.94 1.34z" fill="#fff"></path></g></svg>